written-units.ufo
<glyph name="nirugu" format="2">
	<advance width="168"/>
	<unicode hex="180A"/>
	<outline>
		<contour>
			<point x="188" y="444" type="line"/>
			<point x="0" y="444" type="line"/>
			<point x="0" y="364" type="line"/>
			<point x="188" y="364" type="line"/>
		</contour>
	</outline>
</glyph>
<glyph name="A.medi" format="2">
	<advance width="284"/>
	<outline>
		<contour>
			<point x="0" y="444" type="line"/>
			<point x="0" y="364" type="line"/>
			<point x="19" y="96" type="line"/>
			<point x="85" y="96" type="line"/>
			<point x="104" y="364" type="line"/>
			<point x="314" y="364" type="line"/>
			<point x="314" y="444" type="line"/>
		</contour>
	</outline>
</glyph>
<glyph name="Ah.isol" format="2">
	<advance width="470"/>
	<outline>
		<contour>
			<point x="164" y="-264" type="curve"/>
			<point x="164" y="-264" type="line"/>
			<point x="164" y="-264" type="line"/>
			<point x="246" y="-264" type="line"/>
			<point x="232" y="-240"/>
			<point x="225" y="-214"/>
			<point x="225" y="-187" type="curve"/>
			<point x="225" y="-125"/>
			<point x="244" y="-91"/>
			<point x="292" y="-31" type="curve"/>
			<point x="340" y="29"/>
			<point x="374" y="82"/>
			<point x="394" y="123" type="curve"/>
			<point x="415" y="165"/>
			<point x="425" y="206"/>
			<point x="425" y="245" type="curve"/>
			<point x="425" y="373"/>
			<point x="348" y="444"/>
			<point x="194" y="444" type="curve"/>
			<point x="118" y="444" type="line"/>
			<point x="100" y="364" type="line"/>
			<point x="193" y="364" type="line" smooth="yes"/>
			<point x="300" y="364"/>
			<point x="347" y="325"/>
			<point x="347" y="245" type="curve"/>
			<point x="347" y="214"/>
			<point x="339" y="183"/>
			<point x="323" y="152" type="curve"/>
			<point x="307" y="121"/>
			<point x="280" y="80"/>
			<point x="240" y="28" type="curve"/>
			<point x="183" y="-46"/>
			<point x="145" y="-112"/>
			<point x="145" y="-187" type="curve"/>
			<point x="145" y="-217"/>
			<point x="151" y="-243"/>
		</contour>
	</outline>
</glyph>
<glyph name="Gh.fina" format="2">
	<advance width="663"/>
	<outline>
		<contour>
			<point x="200" y="-102" type="curve"/>
			<point x="200" y="-102" type="line"/>
			<point x="243" y="-141" type="line"/>
			<point x="276" y="-106"/>
			<point x="322" y="-68"/>
			<point x="382" y="-25" type="curve"/>
			<point x="321" y="44" type="line"/>
			<point x="282" y="5"/>
			<point x="242" y="-43"/>
		</contour>
		<contour>
			<point x="419" y="-157" type="curve"/>
			<point x="419" y="-157" type="line"/>
			<point x="462" y="-196" type="line"/>
			<point x="495" y="-161"/>
			<point x="541" y="-123"/>
			<point x="601" y="-80" type="curve"/>
			<point x="540" y="-11" type="line"/>
			<point x="501" y="-50"/>
			<point x="461" y="-98"/>
		</contour>
		<contour>
			<point x="506" y="74" type="curve"/>
			<point x="506" y="74" type="line"/>
			<point x="506" y="74" type="line"/>
			<point x="506" y="186" type="line" smooth="yes"/>
			<point x="506" y="361"/>
			<point x="535" y="516"/>
			<point x="618" y="666" type="curve"/>
			<point x="525" y="666" type="line"/>
			<point x="459" y="536"/>
			<point x="427" y="376"/>
			<point x="427" y="188" type="curve"/>
			<point x="340" y="237"/>
			<point x="321" y="318"/>
			<point x="321" y="444" type="curve"/>
			<point x="0" y="444" type="line"/>
			<point x="0" y="364" type="line"/>
			<point x="19" y="96" type="line"/>
			<point x="85" y="96" type="line"/>
			<point x="104" y="364" type="line"/>
			<point x="251" y="364" type="line"/>
			<point x="251" y="214"/>
			<point x="359" y="74"/>
		</contour>
	</outline>
</glyph>
<glyph name="Gh.medi" format="2">
	<advance width="568"/>
	<outline>
		<contour>
			<point x="2" y="-124" type="curve"/>
			<point x="2" y="-124" type="line"/>
			<point x="45" y="-163" type="line"/>
			<point x="78" y="-128"/>
			<point x="124" y="-90"/>
			<point x="184" y="-47" type="curve"/>
			<point x="123" y="22" type="line"/>
			<point x="84" y="-17"/>
			<point x="44" y="-65"/>
		</contour>
		<contour>
			<point x="285" y="-124" type="curve"/>
			<point x="285" y="-124" type="line"/>
			<point x="328" y="-163" type="line"/>
			<point x="361" y="-128"/>
			<point x="407" y="-90"/>
			<point x="467" y="-47" type="curve"/>
			<point x="406" y="22" type="line"/>
			<point x="367" y="-17"/>
			<point x="327" y="-65"/>
		</contour>
		<contour>
			<point x="0" y="444" type="line"/>
			<point x="0" y="364" type="line"/>
			<point x="19" y="96" type="line"/>
			<point x="85" y="96" type="line"/>
			<point x="104" y="364" type="line"/>
			<point x="284" y="364" type="line"/>
			<point x="303" y="96" type="line"/>
			<point x="369" y="96" type="line"/>
			<point x="388" y="364" type="line"/>
			<point x="598" y="364" type="line"/>
			<point x="598" y="444" type="line"/>
		</contour>
	</outline>
</glyph>
<glyph name="H.fina" format="2">
	<advance width="663"/>
	<outline>
		<contour>
			<point x="506" y="74" type="curve"/>
			<point x="506" y="74" type="line"/>
			<point x="506" y="74" type="line"/>
			<point x="506" y="186" type="line" smooth="yes"/>
			<point x="506" y="361"/>
			<point x="535" y="516"/>
			<point x="618" y="666" type="curve"/>
			<point x="525" y="666" type="line"/>
			<point x="459" y="536"/>
			<point x="427" y="376"/>
			<point x="427" y="188" type="curve"/>
			<point x="340" y="237"/>
			<point x="321" y="318"/>
			<point x="321" y="444" type="curve"/>
			<point x="0" y="444" type="line"/>
			<point x="0" y="364" type="line"/>
			<point x="19" y="96" type="line"/>
			<point x="85" y="96" type="line"/>
			<point x="104" y="364" type="line"/>
			<point x="251" y="364" type="line"/>
			<point x="251" y="214"/>
			<point x="359" y="74"/>
		</contour>
	</outline>
</glyph>
<glyph name="H.init" format="2">
	<advance width="788"/>
	<outline>
		<contour>
			<point x="221" y="96" type="curve"/>
			<point x="221" y="96" type="line"/>
			<point x="221" y="96" type="line"/>
			<point x="299" y="96" type="line"/>
			<point x="289" y="268"/>
			<point x="258" y="377"/>
			<point x="206" y="423" type="curve"/>
			<point x="214" y="574"/>
			<point x="272" y="644"/>
			<point x="362" y="644" type="curve"/>
			<point x="462" y="644"/>
			<point x="512" y="563"/>
			<point x="512" y="378" type="curve"/>
			<point x="512" y="279"/>
			<point x="506" y="185"/>
			<point x="495" y="96" type="curve"/>
			<point x="573" y="96" type="line"/>
			<point x="587" y="192"/>
			<point x="594" y="281"/>
			<point x="594" y="364" type="curve"/>
			<point x="818" y="364" type="line"/>
			<point x="818" y="444" type="line"/>
			<point x="591" y="444" type="line"/>
			<point x="573" y="633"/>
			<point x="497" y="727"/>
			<point x="362" y="727" type="curve"/>
			<point x="222" y="727"/>
			<point x="142" y="609"/>
			<point x="129" y="451" type="curve"/>
			<point x="96" y="450"/>
			<point x="68" y="444"/>
			<point x="45" y="433" type="curve"/>
			<point x="45" y="353" type="line"/>
			<point x="62" y="362"/>
			<point x="84" y="366"/>
			<point x="112" y="366" type="curve"/>
			<point x="192" y="366"/>
			<point x="210" y="233"/>
		</contour>
	</outline>
</glyph>
<glyph name="I.isol" format="2">
	<advance width="548"/>
	<outline>
		<contour>
			<point x="174" y="42" type="curve"/>
			<point x="174" y="42" type="line"/>
			<point x="174" y="42" type="line"/>
			<point x="245" y="85" type="line"/>
			<point x="167" y="194"/>
			<point x="124" y="285"/>
			<point x="124" y="407" type="curve"/>
			<point x="124" y="567"/>
			<point x="181" y="644"/>
			<point x="273" y="644" type="curve"/>
			<point x="361" y="644"/>
			<point x="413" y="546"/>
			<point x="423" y="376" type="curve"/>
			<point x="503" y="386" type="line"/>
			<point x="493" y="568"/>
			<point x="428" y="727"/>
			<point x="273" y="727" type="curve"/>
			<point x="121" y="727"/>
			<point x="45" y="586"/>
			<point x="45" y="407" type="curve"/>
			<point x="45" y="292"/>
			<point x="88" y="170"/>
		</contour>
	</outline>
</glyph>
<glyph name="Ih.isol" format="2">
	<advance width="548"/>
	<outline>
		<contour>
			<point x="174" y="42" type="curve"/>
			<point x="174" y="42" type="line"/>
			<point x="174" y="42" type="line"/>
			<point x="245" y="85" type="line"/>
			<point x="167" y="194"/>
			<point x="124" y="285"/>
			<point x="124" y="407" type="curve"/>
			<point x="124" y="567"/>
			<point x="181" y="644"/>
			<point x="273" y="644" type="curve"/>
			<point x="361" y="644"/>
			<point x="413" y="546"/>
			<point x="423" y="376" type="curve"/>
			<point x="503" y="386" type="line"/>
			<point x="493" y="568"/>
			<point x="428" y="727"/>
			<point x="273" y="727" type="curve"/>
			<point x="121" y="727"/>
			<point x="45" y="586"/>
			<point x="45" y="407" type="curve"/>
			<point x="45" y="292"/>
			<point x="88" y="170"/>
		</contour>
		<contour>
			<point x="141" y="-157" type="curve"/>
			<point x="141" y="-157" type="line"/>
			<point x="184" y="-196" type="line"/>
			<point x="217" y="-161"/>
			<point x="263" y="-123"/>
			<point x="323" y="-80" type="curve"/>
			<point x="262" y="-11" type="line"/>
			<point x="223" y="-50"/>
			<point x="183" y="-98"/>
		</contour>
	</outline>
</glyph>
<glyph name="K2.init" format="2">
	<advance width="429"/>
	<outline>
		<contour>
			<point x="244" y="35" type="curve"/>
			<point x="244" y="35" type="line"/>
			<point x="244" y="35" type="line"/>
			<point x="306" y="90" type="line"/>
			<point x="181" y="225"/>
			<point x="124" y="329"/>
			<point x="124" y="419" type="curve"/>
			<point x="124" y="546"/>
			<point x="166" y="644"/>
			<point x="274" y="644" type="curve"/>
			<point x="394" y="644"/>
			<point x="418" y="530"/>
			<point x="429" y="364" type="curve"/>
			<point x="503" y="364" type="line"/>
			<point x="493" y="610"/>
			<point x="422" y="727"/>
			<point x="274" y="727" type="curve"/>
			<point x="121" y="727"/>
			<point x="45" y="594"/>
			<point x="45" y="419" type="curve"/>
			<point x="45" y="96" type="line"/>
			<point x="111" y="96" type="line"/>
			<point x="119" y="215" type="line"/>
			<point x="146" y="157"/>
			<point x="188" y="97"/>
		</contour>
	</outline>
</glyph>
<glyph name="K2.medi" format="2">
	<advance width="384"/>
	<outline>
		<contour>
			<point x="199" y="35" type="curve"/>
			<point x="199" y="35" type="line"/>
			<point x="199" y="35" type="line"/>
			<point x="261" y="90" type="line"/>
			<point x="136" y="225"/>
			<point x="79" y="329"/>
			<point x="79" y="419" type="curve"/>
			<point x="79" y="546"/>
			<point x="121" y="644"/>
			<point x="229" y="644" type="curve"/>
			<point x="349" y="644"/>
			<point x="373" y="530"/>
			<point x="384" y="364" type="curve"/>
			<point x="458" y="364" type="line"/>
			<point x="448" y="610"/>
			<point x="377" y="727"/>
			<point x="229" y="727" type="curve"/>
			<point x="76" y="727"/>
			<point x="0" y="594"/>
			<point x="0" y="419" type="curve"/>
			<point x="0" y="96" type="line"/>
			<point x="66" y="96" type="line"/>
			<point x="74" y="215" type="line"/>
			<point x="101" y="157"/>
			<point x="143" y="97"/>
		</contour>
	</outline>
</glyph>
<glyph name="L.init" format="2">
	<advance width="492"/>
	<outline>
		<contour>
			<point x="200" y="437" type="curve"/>
			<point x="200" y="437" type="line"/>
			<point x="226" y="74" type="line"/>
			<point x="292" y="74" type="line"/>
			<point x="302" y="219" type="line" smooth="yes"/>
			<point x="310" y="330"/>
			<point x="336" y="364"/>
			<point x="445" y="364" type="curve"/>
			<point x="522" y="364" type="line"/>
			<point x="522" y="444" type="line"/>
			<point x="444" y="444" type="line" smooth="yes"/>
			<point x="360" y="444"/>
			<point x="307" y="416"/>
			<point x="285" y="361" type="curve"/>
			<point x="281" y="361" type="line"/>
			<point x="278" y="445" type="line" smooth="yes"/>
			<point x="276" y="500"/>
			<point x="270" y="542"/>
			<point x="259" y="573" type="curve"/>
			<point x="266" y="640"/>
			<point x="292" y="698"/>
			<point x="339" y="766" type="curve"/>
			<point x="339" y="832" type="line"/>
			<point x="219" y="832" type="line" smooth="yes"/>
			<point x="151" y="832"/>
			<point x="86" y="835"/>
			<point x="39" y="868" type="curve"/>
			<point x="39" y="790" type="line"/>
			<point x="80" y="754"/>
			<point x="142" y="752"/>
			<point x="219" y="752" type="curve"/>
			<point x="247" y="752" type="line"/>
			<point x="228" y="723"/>
			<point x="212" y="686"/>
			<point x="200" y="642" type="curve"/>
			<point x="182" y="649"/>
			<point x="162" y="653"/>
			<point x="139" y="653" type="curve"/>
			<point x="100" y="653"/>
			<point x="57" y="643"/>
			<point x="10" y="623" type="curve"/>
			<point x="10" y="550" type="line"/>
			<point x="52" y="567"/>
			<point x="88" y="575"/>
			<point x="118" y="575" type="curve"/>
			<point x="180" y="575"/>
			<point x="194" y="520"/>
		</contour>
	</outline>
</glyph>
<glyph name="L.medi" format="2">
	<advance width="284"/>
	<outline>
		<contour>
			<point x="0" y="444" type="line"/>
			<point x="0" y="364" type="line"/>
			<point x="19" y="96" type="line"/>
			<point x="85" y="96" type="line"/>
			<point x="104" y="364" type="line"/>
			<point x="314" y="364" type="line"/>
			<point x="314" y="444" type="line"/>
			<point x="86" y="444" type="line"/>
			<point x="88" y="518"/>
			<point x="109" y="581"/>
			<point x="148" y="653" type="curve"/>
			<point x="148" y="719" type="line"/>
			<point x="28" y="719" type="line" smooth="yes"/>
			<point x="-43" y="719"/>
			<point x="-102" y="721"/>
			<point x="-152" y="755" type="curve"/>
			<point x="-152" y="677" type="line"/>
			<point x="-112" y="642"/>
			<point x="-54" y="639"/>
			<point x="28" y="639" type="curve"/>
			<point x="62" y="639" type="line"/>
			<point x="34" y="580"/>
			<point x="19" y="515"/>
			<point x="16" y="444" type="curve"/>
		</contour>
	</outline>
</glyph>
<glyph name="N.fina" format="2">
	<advance width="427"/>
	<outline>
		<contour>
			<point x="139" y="-146" type="curve"/>
			<point x="139" y="-146" type="line"/>
			<point x="182" y="-185" type="line"/>
			<point x="215" y="-150"/>
			<point x="261" y="-112"/>
			<point x="321" y="-69" type="curve"/>
			<point x="260" y="0" type="line"/>
			<point x="221" y="-39"/>
			<point x="181" y="-87"/>
		</contour>
		<contour>
			<point x="228" y="53" type="curve"/>
			<point x="228" y="53" type="line"/>
			<point x="228" y="53" type="line"/>
			<point x="228" y="156" type="line" smooth="yes"/>
			<point x="228" y="299"/>
			<point x="245" y="429"/>
			<point x="277" y="547" type="curve"/>
			<point x="309" y="666"/>
			<point x="357" y="762"/>
			<point x="417" y="836" type="curve"/>
			<point x="325" y="836" type="line"/>
			<point x="273" y="768"/>
			<point x="231" y="674"/>
			<point x="199" y="555" type="curve"/>
			<point x="167" y="435"/>
			<point x="151" y="302"/>
			<point x="151" y="156" type="curve"/>
			<point x="58" y="210"/>
			<point x="41" y="312"/>
			<point x="41" y="444" type="curve"/>
			<point x="-33" y="444" type="line"/>
			<point x="-33" y="364" type="line" smooth="yes"/>
			<point x="-33" y="206"/>
			<point x="67" y="63"/>
		</contour>
	</outline>
</glyph>
<glyph name="R.init" format="2">
	<advance width="618"/>
	<outline>
		<contour>
			<point x="240" y="-131" type="curve"/>
			<point x="240" y="-131" type="line"/>
			<point x="240" y="-131" type="line"/>
			<point x="313" y="-96" type="line"/>
			<point x="271" y="-17"/>
			<point x="234" y="63"/>
			<point x="205" y="143" type="curve"/>
			<point x="289" y="143" type="line" smooth="yes"/>
			<point x="379" y="143"/>
			<point x="416" y="97"/>
			<point x="416" y="13" type="curve"/>
			<point x="416" y="-19"/>
			<point x="411" y="-44"/>
			<point x="401" y="-65" type="curve"/>
			<point x="480" y="-65" type="line"/>
			<point x="491" y="-38"/>
			<point x="496" y="-9"/>
			<point x="496" y="24" type="curve"/>
			<point x="496" y="144"/>
			<point x="421" y="223"/>
			<point x="292" y="223" type="curve"/>
			<point x="176" y="223" type="line"/>
			<point x="161" y="268"/>
			<point x="148" y="314"/>
			<point x="137" y="364" type="curve"/>
			<point x="648" y="364" type="line"/>
			<point x="648" y="444" type="line"/>
			<point x="45" y="444" type="line"/>
			<point x="72" y="267"/>
			<point x="137" y="76"/>
		</contour>
	</outline>
</glyph>
<glyph name="R.medi" format="2">
	<advance width="559"/>
	<outline>
		<contour>
			<point x="181" y="-131" type="curve"/>
			<point x="181" y="-131" type="line"/>
			<point x="181" y="-131" type="line"/>
			<point x="254" y="-96" type="line"/>
			<point x="209" y="-13"/>
			<point x="174" y="67"/>
			<point x="146" y="143" type="curve"/>
			<point x="230" y="143" type="line" smooth="yes"/>
			<point x="320" y="143"/>
			<point x="357" y="97"/>
			<point x="357" y="13" type="curve"/>
			<point x="357" y="-19"/>
			<point x="352" y="-44"/>
			<point x="342" y="-65" type="curve"/>
			<point x="421" y="-65" type="line"/>
			<point x="432" y="-38"/>
			<point x="437" y="-9"/>
			<point x="437" y="24" type="curve"/>
			<point x="437" y="144"/>
			<point x="362" y="223"/>
			<point x="233" y="223" type="curve"/>
			<point x="117" y="223" type="line"/>
			<point x="103" y="265"/>
			<point x="90" y="312"/>
			<point x="78" y="364" type="curve"/>
			<point x="589" y="364" type="line"/>
			<point x="589" y="444" type="line"/>
			<point x="0" y="444" type="line"/>
			<point x="0" y="364" type="line"/>
			<point x="39" y="198"/>
			<point x="99" y="33"/>
		</contour>
	</outline>
</glyph>
<glyph name="Sh.fina" format="2">
	<advance width="685"/>
	<outline>
		<contour>
			<point x="65" y="816" type="curve"/>
			<point x="65" y="816" type="line"/>
			<point x="108" y="777" type="line"/>
			<point x="141" y="812"/>
			<point x="187" y="850"/>
			<point x="247" y="893" type="curve"/>
			<point x="186" y="962" type="line"/>
			<point x="147" y="923"/>
			<point x="107" y="875"/>
		</contour>
		<contour>
			<point x="272" y="816" type="curve"/>
			<point x="272" y="816" type="line"/>
			<point x="315" y="777" type="line"/>
			<point x="348" y="812"/>
			<point x="394" y="850"/>
			<point x="454" y="893" type="curve"/>
			<point x="393" y="962" type="line"/>
			<point x="354" y="923"/>
			<point x="314" y="875"/>
		</contour>
		<contour>
			<point x="27" y="73" type="curve"/>
			<point x="27" y="73" type="line"/>
			<point x="27" y="73" type="line"/>
			<point x="105" y="73" type="line"/>
			<point x="92" y="124"/>
			<point x="86" y="191"/>
			<point x="86" y="276" type="curve"/>
			<point x="86" y="395"/>
			<point x="111" y="495"/>
			<point x="166" y="613" type="curve"/>
			<point x="170" y="613" type="line"/>
			<point x="179" y="519"/>
			<point x="197" y="431"/>
			<point x="222" y="350" type="curve"/>
			<point x="247" y="268"/>
			<point x="283" y="187"/>
			<point x="328" y="106" type="curve"/>
			<point x="408" y="106" type="line"/>
			<point x="449" y="309"/>
			<point x="520" y="478"/>
			<point x="640" y="642" type="curve"/>
			<point x="543" y="642" type="line"/>
			<point x="457" y="520"/>
			<point x="392" y="375"/>
			<point x="358" y="223" type="curve"/>
			<point x="354" y="223" type="line"/>
			<point x="313" y="308"/>
			<point x="283" y="392"/>
			<point x="265" y="475" type="curve"/>
			<point x="247" y="558"/>
			<point x="238" y="644"/>
			<point x="238" y="734" type="curve"/>
			<point x="157" y="734" type="line"/>
			<point x="94" y="640"/>
			<point x="53" y="543"/>
			<point x="32" y="444" type="curve"/>
			<point x="0" y="444" type="line"/>
			<point x="0" y="364" type="line" smooth="yes"/>
			<point x="0" y="276"/>
			<point x="11" y="168"/>
		</contour>
	</outline>
</glyph>
<glyph name="T.init" format="2">
	<advance width="670"/>
	<outline>
		<contour>
			<point x="91" y="364" type="curve"/>
			<point x="386" y="364" type="line"/>
			<point x="405" y="96" type="line"/>
			<point x="471" y="96" type="line"/>
			<point x="490" y="364" type="line"/>
			<point x="700" y="364" type="line"/>
			<point x="700" y="444" type="line"/>
			<point x="460" y="444" type="line"/>
			<point x="448" y="680"/>
			<point x="388" y="777"/>
			<point x="243" y="777" type="curve"/>
			<point x="122" y="777"/>
			<point x="45" y="686"/>
			<point x="45" y="563" type="curve"/>
			<point x="45" y="497"/>
			<point x="61" y="421"/>
		</contour>
		<contour>
			<point x="380" y="444" type="curve"/>
			<point x="380" y="444" type="line"/>
			<point x="147" y="444" type="line"/>
			<point x="132" y="473"/>
			<point x="124" y="512"/>
			<point x="124" y="563" type="curve"/>
			<point x="124" y="646"/>
			<point x="171" y="694"/>
			<point x="243" y="694" type="curve"/>
			<point x="333" y="694"/>
			<point x="374" y="616"/>
		</contour>
	</outline>
</glyph>
<glyph name="U.init" format="2">
	<advance width="618"/>
	<outline>
		<contour>
			<point x="242" y="40" type="curve"/>
			<point x="242" y="40" type="line"/>
			<point x="242" y="40" type="line"/>
			<point x="369" y="40"/>
			<point x="440" y="123"/>
			<point x="440" y="249" type="curve"/>
			<point x="440" y="294"/>
			<point x="433" y="333"/>
			<point x="420" y="364" type="curve"/>
			<point x="648" y="364" type="line"/>
			<point x="648" y="444" type="line"/>
			<point x="90" y="444" type="line"/>
			<point x="59" y="392"/>
			<point x="45" y="336"/>
			<point x="45" y="260" type="curve"/>
			<point x="45" y="123"/>
			<point x="111" y="40"/>
		</contour>
		<contour>
			<point x="242" y="123" type="curve"/>
			<point x="242" y="123" type="line"/>
			<point x="242" y="123" type="line"/>
			<point x="164" y="123"/>
			<point x="124" y="169"/>
			<point x="124" y="262" type="curve"/>
			<point x="124" y="303"/>
			<point x="131" y="336"/>
			<point x="144" y="364" type="curve"/>
			<point x="341" y="364" type="line"/>
			<point x="354" y="333"/>
			<point x="361" y="295"/>
			<point x="361" y="251" type="curve"/>
			<point x="361" y="166"/>
			<point x="315" y="123"/>
		</contour>
	</outline>
</glyph>
<glyph name="U.medi" format="2">
	<advance width="573"/>
	<outline>
		<contour>
			<point x="197" y="40" type="curve"/>
			<point x="197" y="40" type="line"/>
			<point x="197" y="40" type="line"/>
			<point x="324" y="40"/>
			<point x="395" y="123"/>
			<point x="395" y="249" type="curve"/>
			<point x="395" y="293"/>
			<point x="388" y="331"/>
			<point x="373" y="364" type="curve"/>
			<point x="603" y="364" type="line"/>
			<point x="603" y="444" type="line"/>
			<point x="0" y="444" type="line"/>
			<point x="0" y="364" type="line"/>
			<point x="20" y="364" type="line"/>
			<point x="7" y="333"/>
			<point x="0" y="294"/>
			<point x="0" y="249" type="curve"/>
			<point x="0" y="117"/>
			<point x="68" y="40"/>
		</contour>
		<contour>
			<point x="197" y="123" type="curve"/>
			<point x="197" y="123" type="line"/>
			<point x="197" y="123" type="line"/>
			<point x="118" y="123"/>
			<point x="79" y="166"/>
			<point x="79" y="251" type="curve"/>
			<point x="79" y="295"/>
			<point x="86" y="333"/>
			<point x="99" y="364" type="curve"/>
			<point x="296" y="364" type="line"/>
			<point x="309" y="333"/>
			<point x="316" y="295"/>
			<point x="316" y="251" type="curve"/>
			<point x="316" y="166"/>
			<point x="271" y="123"/>
		</contour>
	</outline>
</glyph>
<glyph name="Uh.isol" format="2">
	<advance width="680"/>
	<outline>
		<contour>
			<point x="271" y="40" type="curve"/>
			<point x="271" y="40" type="line"/>
			<point x="271" y="40" type="line"/>
			<point x="377" y="40"/>
			<point x="451" y="137"/>
			<point x="451" y="275" type="curve"/>
			<point x="451" y="316"/>
			<point x="441" y="403"/>
			<point x="428" y="444" type="curve"/>
			<point x="124" y="444" type="line"/>
			<point x="128" y="592"/>
			<point x="197" y="699"/>
			<point x="335" y="699" type="curve"/>
			<point x="473" y="699"/>
			<point x="542" y="573"/>
			<point x="555" y="409" type="curve"/>
			<point x="635" y="419" type="line"/>
			<point x="621" y="616"/>
			<point x="515" y="782"/>
			<point x="335" y="782" type="curve"/>
			<point x="141" y="782"/>
			<point x="45" y="624"/>
			<point x="45" y="408" type="curve"/>
			<point x="45" y="164"/>
			<point x="117" y="40"/>
		</contour>
		<contour>
			<point x="264" y="123" type="curve"/>
			<point x="264" y="123" type="line"/>
			<point x="264" y="123" type="line"/>
			<point x="173" y="123"/>
			<point x="127" y="203"/>
			<point x="124" y="364" type="curve"/>
			<point x="362" y="364" type="line"/>
			<point x="369" y="343"/>
			<point x="372" y="313"/>
			<point x="372" y="275" type="curve"/>
			<point x="372" y="190"/>
			<point x="337" y="123"/>
		</contour>
		<contour>
			<point x="172" y="-157" type="curve"/>
			<point x="172" y="-157" type="line"/>
			<point x="215" y="-196" type="line"/>
			<point x="248" y="-161"/>
			<point x="294" y="-123"/>
			<point x="354" y="-80" type="curve"/>
			<point x="293" y="-11" type="line"/>
			<point x="254" y="-50"/>
			<point x="214" y="-98"/>
		</contour>
	</outline>
</glyph>
<glyph name="W.fina" format="2">
	<advance width="708"/>
	<outline>
		<contour>
			<point x="309" y="-119" type="curve"/>
			<point x="309" y="-119" type="line"/>
			<point x="309" y="-119" type="line"/>
			<point x="346" y="-119"/>
			<point x="377" y="-106"/>
			<point x="392" y="-85" type="curve"/>
			<point x="392" y="6" type="line"/>
			<point x="373" y="-22"/>
			<point x="345" y="-36"/>
			<point x="309" y="-36" type="curve"/>
			<point x="244" y="-36"/>
			<point x="202" y="49"/>
			<point x="156" y="152" type="curve"/>
			<point x="124" y="224"/>
			<point x="99" y="294"/>
			<point x="79" y="364" type="curve"/>
			<point x="488" y="364" type="line" smooth="yes"/>
			<point x="559" y="364"/>
			<point x="586" y="333"/>
			<point x="586" y="279" type="curve"/>
			<point x="586" y="235"/>
			<point x="579" y="196"/>
			<point x="564" y="162" type="curve"/>
			<point x="638" y="162" type="line"/>
			<point x="655" y="199"/>
			<point x="663" y="238"/>
			<point x="663" y="279" type="curve"/>
			<point x="663" y="389"/>
			<point x="604" y="444"/>
			<point x="488" y="444" type="curve"/>
			<point x="0" y="444" type="line"/>
			<point x="0" y="364" type="line"/>
			<point x="20" y="292"/>
			<point x="42" y="223"/>
			<point x="68" y="157" type="curve"/>
			<point x="132" y="-6"/>
			<point x="187" y="-119"/>
		</contour>
	</outline>
</glyph>
<glyph name="Z.medi" format="2">
	<advance width="578"/>
	<outline>
		<contour>
			<point x="449" y="-119" type="curve"/>
			<point x="449" y="-119" type="line"/>
			<point x="449" y="-119" type="line"/>
			<point x="488" y="-119"/>
			<point x="517" y="-108"/>
			<point x="534" y="-85" type="curve"/>
			<point x="534" y="6" type="line"/>
			<point x="513" y="-22"/>
			<point x="486" y="-36"/>
			<point x="452" y="-36" type="curve"/>
			<point x="369" y="-36"/>
			<point x="339" y="43"/>
			<point x="339" y="151" type="curve"/>
			<point x="339" y="217"/>
			<point x="349" y="288"/>
			<point x="369" y="364" type="curve"/>
			<point x="608" y="364" type="line"/>
			<point x="608" y="444" type="line"/>
			<point x="0" y="444" type="line"/>
			<point x="0" y="364" type="line"/>
			<point x="294" y="364" type="line"/>
			<point x="275" y="296"/>
			<point x="266" y="223"/>
			<point x="266" y="143" type="curve"/>
			<point x="235" y="143" type="line" smooth="yes"/>
			<point x="141" y="143"/>
			<point x="63" y="141"/>
			<point x="0" y="101" type="curve"/>
			<point x="0" y="16" type="line"/>
			<point x="68" y="57"/>
			<point x="138" y="63"/>
			<point x="235" y="63" type="curve"/>
			<point x="270" y="63" type="line"/>
			<point x="286" y="-50"/>
			<point x="349" y="-119"/>
		</contour>
	</outline>
</glyph>
